<mxfile host="app.diagrams.net" modified="2023-03-25T00:31:44.430Z" agent="Mozilla/5.0 (Windows NT 10.0; Win64; x64) AppleWebKit/537.36 (KHTML, like Gecko) Chrome/111.0.0.0 Safari/537.36" version="21.1.1" etag="sZP27k6YA2mjtmaXs4Cr" type="github">
  <diagram name="PÃ¡gina-1" id="Xd5rq1ed5FGLDgRt0UHT">
    <mxGraphModel>
      <root>
        <mxCell id="0" />
        <mxCell id="1" parent="0" />
      </root>
    </mxGraphModel>
  </diagram>
</mxfile>
